<?xml version="1.0" standalone="no"?>
<!DOCTYPE svg PUBLIC "-//W3C//DTD SVG 20010904//EN"
 "http://www.w3.org/TR/2001/REC-SVG-20010904/DTD/svg10.dtd">
<svg version="1.0" xmlns="http://www.w3.org/2000/svg"
 width="225.000000pt" height="225.000000pt" viewBox="0 0 225.000000 225.000000"
 preserveAspectRatio="xMidYMid meet">
<metadata>
Created by potrace 1.16, written by Peter Selinger 2001-2019
</metadata>
<g transform="translate(0.000000,225.000000) scale(0.100000,-0.100000)"
fill="#000000" stroke="none">
<path d="M720 1295 c0 -10 10 -15 29 -15 15 0 40 -9 55 -21 l26 -20 0 -297 c0
-338 -1 -342 -68 -356 -23 -6 -42 -16 -42 -23 0 -10 38 -13 180 -13 146 0 180
3 180 14 0 8 -16 16 -39 20 -64 10 -71 28 -71 193 l0 143 165 0 165 0 0 -112
c-1 -176 -22 -228 -92 -228 -19 0 -28 -4 -26 -12 4 -10 51 -14 181 -16 153 -2
177 0 177 13 0 8 -9 15 -20 15 -40 0 -79 28 -85 63 -3 17 -5 160 -3 315 l3
284 24 19 c13 10 36 19 52 19 19 0 29 5 29 15 0 13 -27 15 -181 15 -140 0
-180 -3 -177 -12 3 -7 20 -15 39 -19 19 -3 40 -8 46 -12 22 -13 33 -80 33
-189 l0 -108 -165 0 -165 0 0 134 c0 133 0 135 26 155 15 12 40 21 55 21 19 0
29 5 29 15 0 13 -27 15 -180 15 -153 0 -180 -2 -180 -15z"/>
</g>
</svg>
